# xmcd CD database file
#
# Track frame offsets:
#	187
#	13592
#	24847
#	39572
#	54425
#	65157
#	85390
#	98392
#	109022
#	120245
#	137075
#	154062
#	177405
#	192692
#
# Disc length: 2806 seconds
#
# Revision: 0
# Processed by: cddbd v1.5.1PL0 Copyright (c) Steve Scherf et al.
# Submitted via: CDex 1.51
#
DISCID=b20af40e
DTITLE=The L.A. Jazz Choir - From All Sides
DYEAR=1991
DGENRE=Jazz
TTITLE0=Everybody's Boppin'
TTITLE1=What Is This Thing Called Love
TTITLE2=Don's Song
TTITLE3=Tuxedo Junction
TTITLE4=I Could Write A Book
TTITLE5=In Time
TTITLE6=The Jersey Bounce
TTITLE7=Jim. Jam, Jump
TTITLE8=Blue In Green
TTITLE9=Love Is A Joy
TTITLE10=Dream On
TTITLE11=Sboguvane (Farewall)
TTITLE12=Sweet Georgia Brown
TTITLE13=Jumpin' With Symphony Sid
EXTD=YEAR: 1991
EXTT0=
EXTT1=
EXTT2=
EXTT3=
EXTT4=
EXTT5=
EXTT6=
EXTT7=
EXTT8=
EXTT9=
EXTT10=
EXTT11=
EXTT12=
EXTT13=
PLAYORDER=
